# xmcd
#
# Track frame offsets:
#	150
#	19652
#	36633
#	48637
#	60394
#	77707
#	104062
#	128089
#	146384
#	162682
#	189268
#
# Disc length: 2994 seconds
#
# Revision: 0
# Processed by: cddbd v1.5.2PL0 Copyright (c) Steve Scherf et al.
# Submitted via: EasyCDDAExtractor 12.0.7.1
#
DISCID=990bb00b
DTITLE=Flower Fairy - Nursery Gryme
DYEAR=2009
DGENRE=Dubstep
TTITLE0=Life is but a dream 
TTITLE1=Gingerbread man
TTITLE2=Sunny daze
TTITLE3=Abc
TTITLE4=I share
TTITLE5=Menu of my mind | ft. CAde
TTITLE6=Cruze along 
TTITLE7=Jack n'Jill 
TTITLE8=Beautiful inside my mind
TTITLE9=Teddy bear
TTITLE10=Imaginary place 
EXTD=
EXTT0=
EXTT1=
EXTT2=
EXTT3=
EXTT4=
EXTT5=
EXTT6=
EXTT7=
EXTT8=
EXTT9=
EXTT10=
PLAYORDER=
